# This file uses centimeters as units for non-parametric coordinates.

mtllib FlakTopper.mtl
g default
v -1.841124 10.129164 -1.330846
v -1.969959 10.257999 -1.330846
v -1.841124 10.257999 -1.459681
v -1.841124 10.257999 1.459681
v -1.969959 10.257999 1.330846
v -1.841124 10.129164 1.330846
v -1.841124 11.742001 -1.459681
v -1.969959 11.742001 -1.330846
v -1.841124 11.870836 -1.330846
v -1.841124 11.870836 1.330846
v -1.969959 11.742001 1.330846
v -1.841124 11.742001 1.459681
v 1.561935 11.742001 -1.459681
v 1.561935 11.870836 -1.330846
v 1.690770 11.742001 -1.330846
v 1.690770 11.742001 1.330846
v 1.561935 11.870836 1.330846
v 1.561935 11.742001 1.459681
v 1.561935 10.257999 -1.459681
v 1.690770 10.257999 -1.330846
v 1.561935 10.129164 -1.330846
v 1.561935 10.129164 1.330846
v 1.690770 10.257999 1.330846
v 1.561935 10.257999 1.459681
v 0.054847 10.737999 1.686277
v -0.334036 10.737999 1.686277
v 0.054847 11.262001 1.686277
v -0.334036 11.262001 1.686277
v -0.334036 10.737999 -1.686277
v 0.054848 10.737999 -1.686277
v -0.334036 11.262001 -1.686277
v 0.054848 11.262001 -1.686277
v 0.054847 10.737999 2.766277
v -0.334036 10.737999 2.766277
v 0.054847 11.262001 2.766277
v -0.334036 11.262001 2.766277
v -0.334036 10.737999 -2.766277
v 0.054847 10.737999 -2.766277
v -0.334036 11.262001 -2.766277
v 0.054847 11.262001 -2.766277
vt 0.039946 0.733750
vt 0.038865 0.733750
vt 0.038865 0.710980
vt 0.039946 0.636637
vt 0.039946 0.638449
vt 0.063359 0.733750
vt 0.062278 0.733750
vt 0.063359 0.710980
vt 0.064221 0.638449
vt 0.038865 0.661992
vt 0.038865 0.684762
vt 0.039946 0.659319
vt 0.062278 0.659319
vt 0.063359 0.661992
vt 0.038865 0.687436
vt 0.038865 0.708306
vt 0.039946 0.684762
vt 0.062278 0.684762
vt 0.063359 0.687436
vt 0.063359 0.708306
vt 0.039946 0.708306
vt 0.062278 0.708306
vt 0.062278 0.710980
vt 0.062278 0.638449
vt 0.039946 0.661992
vt 0.062278 0.661992
vt 0.039946 0.687436
vt 0.062278 0.687436
vt 0.039946 0.710980
vt 0.086991 0.638449
vt 0.086991 0.659319
vt 0.015234 0.638449
vt 0.038003 0.638449
vt 0.038003 0.659319
vt 0.015234 0.659319
vt 0.062278 0.636637
vt 0.064221 0.659319
vt 0.063359 0.684762
vt 0.064221 0.638449
vt 0.086991 0.638449
vt 0.086991 0.659319
vt 0.064221 0.659319
vt 0.015234 0.638449
vt 0.038003 0.638449
vt 0.038003 0.659319
vt 0.015234 0.659319
vt 0.064221 0.638449
vt 0.086991 0.638449
vt 0.086991 0.659319
vt 0.064221 0.659319
vt 0.015234 0.638449
vt 0.038003 0.638449
vt 0.038003 0.659319
vt 0.015234 0.659319
vn 0.000000 -0.707106 -0.707107
vn -0.094632 -0.274150 -0.957020
vn 0.094633 -0.274150 -0.957020
vn 0.000000 -0.707106 -0.707107
vn -0.707108 -0.707106 0.000000
vn -0.707108 -0.707106 0.000000
vn -0.707108 -0.707106 0.000000
vn -0.707108 -0.707106 0.000000
vn -0.707106 0.000000 -0.707107
vn -0.707106 0.000000 -0.707107
vn -0.707106 0.000000 -0.707107
vn -0.707106 0.000000 -0.707107
vn -0.094633 -0.274150 0.957020
vn -0.000000 -0.707106 0.707107
vn -0.000000 -0.707106 0.707107
vn 0.094632 -0.274150 0.957020
vn -0.707107 0.000000 0.707107
vn -0.707107 0.000000 0.707107
vn -0.707107 0.000000 0.707107
vn -0.707107 0.000000 0.707107
vn -0.094632 0.274149 -0.957020
vn 0.000000 0.707103 -0.707111
vn 0.000000 0.707103 -0.707111
vn 0.094632 0.274149 -0.957020
vn -0.707108 0.707106 0.000000
vn -0.707108 0.707106 0.000000
vn -0.707108 0.707106 0.000000
vn -0.707108 0.707106 0.000000
vn -0.000000 0.707107 0.707107
vn -0.094633 0.274150 0.957020
vn 0.094633 0.274150 0.957020
vn -0.000000 0.707106 0.707107
vn 0.707106 0.000000 -0.707108
vn 0.707106 0.000000 -0.707108
vn 0.707106 0.000000 -0.707108
vn 0.707106 0.000000 -0.707108
vn 0.707107 0.707106 0.000000
vn 0.707107 0.707106 0.000000
vn 0.707107 0.707106 0.000000
vn 0.707107 0.707106 0.000000
vn 0.707106 0.000000 0.707107
vn 0.707106 0.000000 0.707107
vn 0.707106 0.000000 0.707107
vn 0.707106 0.000000 0.707107
vn 0.707107 -0.707106 0.000000
vn 0.707107 -0.707106 0.000000
vn 0.707107 -0.707106 0.000000
vn 0.707107 -0.707106 0.000000
vn -1.000000 0.000000 0.000000
vn -1.000000 0.000000 0.000000
vn -1.000000 0.000000 0.000000
vn -1.000000 0.000000 0.000000
vn 0.000000 1.000000 0.000000
vn 0.000000 1.000000 0.000000
vn 0.000000 1.000000 0.000000
vn 0.000000 1.000000 0.000000
vn 1.000000 0.000000 0.000000
vn 1.000000 0.000000 0.000000
vn 1.000000 0.000000 0.000000
vn 1.000000 0.000000 0.000000
vn 0.000000 -1.000000 0.000000
vn 0.000000 -1.000000 0.000000
vn 0.000000 -1.000000 0.000000
vn 0.000000 -1.000000 0.000000
vn 0.000000 0.000000 1.000000
vn 0.000000 0.000000 1.000000
vn 0.000000 0.000000 1.000000
vn 0.000000 0.000000 1.000000
vn 0.000000 0.000000 -1.000000
vn 0.000000 0.000000 -1.000000
vn 0.000000 0.000000 -1.000000
vn 0.000000 0.000000 -1.000000
vn -0.577351 -0.577348 -0.577352
vn -0.577351 -0.577348 -0.577352
vn -0.577351 -0.577348 -0.577352
vn -0.577348 -0.577348 0.577354
vn -0.577348 -0.577348 0.577354
vn -0.577348 -0.577348 0.577354
vn -0.577351 0.577348 -0.577352
vn -0.577351 0.577348 -0.577352
vn -0.577351 0.577348 -0.577352
vn -0.577348 0.577348 0.577354
vn -0.577348 0.577348 0.577354
vn -0.577348 0.577348 0.577354
vn 0.577350 0.577347 -0.577354
vn 0.577350 0.577347 -0.577354
vn 0.577350 0.577347 -0.577354
vn 0.577350 0.577347 0.577353
vn 0.577350 0.577347 0.577353
vn 0.577350 0.577347 0.577353
vn 0.577350 -0.577347 -0.577353
vn 0.577350 -0.577347 -0.577353
vn 0.577350 -0.577347 -0.577353
vn 0.577351 -0.577348 0.577352
vn 0.577351 -0.577348 0.577352
vn 0.577351 -0.577348 0.577352
vn 0.077053 -0.217415 0.973033
vn -0.077053 -0.217416 0.973033
vn 0.077053 0.217416 0.973033
vn -0.077053 0.217416 0.973033
vn -0.077053 -0.217416 -0.973033
vn 0.077053 -0.217416 -0.973033
vn -0.077053 0.217416 -0.973033
vn 0.077053 0.217416 -0.973033
vn 0.000000 -1.000000 0.000000
vn 0.000000 -1.000000 0.000000
vn 0.000000 -1.000000 0.000000
vn 0.000000 -1.000000 0.000000
vn 1.000000 0.000000 0.000000
vn 1.000000 0.000000 0.000000
vn 1.000000 0.000000 0.000000
vn 1.000000 0.000000 0.000000
vn 0.000000 1.000000 0.000000
vn 0.000000 1.000000 0.000000
vn 0.000000 1.000000 0.000000
vn 0.000000 1.000000 0.000000
vn -1.000000 0.000000 0.000000
vn -1.000000 0.000000 0.000000
vn -1.000000 0.000000 0.000000
vn -1.000000 0.000000 0.000000
vn 0.000000 -1.000000 0.000000
vn 0.000000 -1.000000 0.000000
vn 0.000000 -1.000000 0.000000
vn 0.000000 -1.000000 0.000000
vn -1.000000 0.000000 0.000000
vn -1.000000 0.000000 0.000000
vn -1.000000 0.000000 0.000000
vn -1.000000 0.000000 0.000000
vn 0.000000 1.000000 0.000000
vn 0.000000 1.000000 0.000000
vn 0.000000 1.000000 0.000000
vn 0.000000 1.000000 0.000000
vn 1.000000 0.000000 -0.000000
vn 1.000000 0.000000 -0.000000
vn 1.000000 0.000000 -0.000000
vn 1.000000 0.000000 -0.000000
s 1
g FlakTopper
usemtl lambert2SG
f 1/1/1 3/2/2 19/3/3 21/29/4
s off
f 2/5/5 1/4/6 6/36/7 5/24/8
f 3/33/9 2/5/10 8/12/11 7/34/12
s 2
f 4/6/13 6/7/14 22/23/15 24/8/16
s off
f 5/24/17 4/9/18 12/37/19 11/13/20
s 1
f 7/10/21 9/25/22 14/17/23 13/11/24
s off
f 9/25/25 8/12/26 11/13/27 10/26/28
s 2
f 10/26/29 12/14/30 18/38/31 17/18/32
s off
f 13/15/33 15/27/34 20/21/35 19/16/36
f 15/27/37 14/17/38 17/18/39 16/28/40
f 16/28/41 18/19/42 24/20/43 23/22/44
f 21/29/45 20/21/46 23/22/47 22/23/48
f 2/5/49 5/24/50 11/13/51 8/12/52
f 9/25/53 10/26/54 17/18/55 14/17/56
f 15/27/57 16/28/58 23/22/59 20/21/60
f 21/29/61 22/23/62 6/7/63 1/1/64
f 34/47/65 33/48/66 35/49/67 36/50/68
f 38/51/69 37/52/70 39/53/71 40/54/72
f 1/4/73 2/5/74 3/33/75
f 4/9/76 5/24/77 6/36/78
f 7/34/79 8/12/80 9/25/81
f 10/26/82 11/13/83 12/37/84
f 13/11/85 14/17/86 15/27/87
f 16/28/88 17/18/89 18/38/90
f 19/16/91 20/21/92 21/29/93
f 22/23/94 23/22/95 24/20/96
s 2
f 4/9/13 24/30/16 25/40/97 26/39/98
f 24/30/16 18/31/31 27/41/99 25/40/97
f 18/31/31 12/37/30 28/42/100 27/41/99
f 12/37/30 4/9/13 26/39/98 28/42/100
s 1
f 19/32/3 3/33/2 29/44/101 30/43/102
f 3/33/2 7/34/21 31/45/103 29/44/101
f 7/34/21 13/35/24 32/46/104 31/45/103
f 13/35/24 19/32/3 30/43/102 32/46/104
s off
f 26/39/105 25/40/106 33/48/107 34/47/108
f 25/40/109 27/41/110 35/49/111 33/48/112
f 27/41/113 28/42/114 36/50/115 35/49/116
f 28/42/117 26/39/118 34/47/119 36/50/120
f 30/43/121 29/44/122 37/52/123 38/51/124
f 29/44/125 31/45/126 39/53/127 37/52/128
f 31/45/129 32/46/130 40/54/131 39/53/132
f 32/46/133 30/43/134 38/51/135 40/54/136
