# This file uses centimeters as units for non-parametric coordinates.

mtllib HarpoonHead.mtl
g default
v -0.428471 10.857580 -9.579512
v 0.428471 10.857580 -9.579512
v -0.428471 11.324042 -9.579512
v 0.428471 11.324042 -9.579512
v 0.000000 11.090811 -10.756928
v -0.328523 10.667185 -8.536296
v 0.328523 10.667185 -8.536296
v 0.328523 11.514437 -8.536296
v -0.328523 11.514437 -8.536296
v 1.240000 11.090811 -7.893100
v -1.240000 11.090811 -7.893100
v -0.186731 10.911181 -7.871707
v 0.186731 10.911181 -7.871707
v 0.186731 11.270441 -7.871707
v -0.186731 11.270441 -7.871707
vt 0.102956 0.554602
vt 0.108662 0.524114
vt 0.114308 0.554613
vt 0.108588 0.600154
vt 0.100290 0.615563
vt 0.094409 0.585109
vt 0.105761 0.585032
vt 0.099779 0.539525
vt 0.037311 0.568962
vt 0.037197 0.589581
vt 0.020692 0.583551
vt 0.020740 0.574808
vt 0.012145 0.540244
vt 0.012259 0.519625
vt 0.028764 0.525654
vt 0.028715 0.534397
vt 0.070492 0.553262
vt 0.091348 0.553259
vt 0.080924 0.582472
vt 0.072922 0.527453
vt 0.088912 0.527451
vt 0.047401 0.513594
vt 0.076370 0.510223
vt 0.085459 0.510222
vt 0.114429 0.513586
vt 0.045072 0.510211
vt 0.055748 0.539332
vt 0.034893 0.539510
vt 0.053535 0.565160
vt 0.037545 0.565296
vt 0.079171 0.578805
vt 0.050231 0.582419
vt 0.041142 0.582496
vt 0.012145 0.579375
vt 0.058085 0.519311
vt 0.058085 0.510222
vt 0.066828 0.510222
vt 0.066828 0.519311
vt 0.050072 0.586075
vt 0.054561 0.565950
vt 0.078815 0.581924
vt 0.040888 0.510222
vt 0.036398 0.530347
vt 0.012145 0.514373
vn 0.000000 0.000000 1.000000
vn 0.000000 0.000000 1.000000
vn 0.000000 0.000000 1.000000
vn 0.000000 0.000000 1.000000
vn 0.000000 0.980940 -0.194311
vn 0.000000 0.980940 -0.194311
vn 0.000000 0.980940 -0.194311
vn 0.000000 -0.980940 -0.194311
vn 0.000000 -0.980940 -0.194311
vn 0.000000 -0.980940 -0.194311
vn 0.939711 0.000000 -0.341969
vn 0.939711 0.000000 -0.341969
vn 0.939711 0.000000 -0.341969
vn -0.939711 0.000000 -0.341969
vn -0.939711 0.000000 -0.341969
vn -0.939711 0.000000 -0.341969
vn 0.000000 -0.983750 -0.179542
vn 0.000000 -0.983750 -0.179542
vn 0.000000 -0.983750 -0.179542
vn 0.000000 -0.983750 -0.179542
vn 0.000000 0.983750 -0.179542
vn 0.000000 0.983750 -0.179542
vn 0.000000 0.983750 -0.179542
vn 0.000000 0.983750 -0.179542
vn 0.901095 0.000000 -0.433621
vn 0.901095 0.000000 -0.433621
vn 0.901095 0.000000 -0.433621
vn 0.482849 0.868481 -0.112244
vn 0.482849 0.868481 -0.112244
vn 0.482849 0.868481 -0.112244
vn -0.576564 0.000000 0.817052
vn -0.576564 0.000000 0.817052
vn -0.576564 0.000000 0.817052
vn 0.482849 -0.868481 -0.112244
vn 0.482849 -0.868481 -0.112244
vn 0.482849 -0.868481 -0.112244
vn -0.901095 0.000000 -0.433621
vn -0.901095 0.000000 -0.433621
vn -0.901095 0.000000 -0.433621
vn -0.482849 -0.868481 -0.112244
vn -0.482849 -0.868481 -0.112244
vn -0.482849 -0.868481 -0.112244
vn 0.576564 0.000000 0.817052
vn 0.576564 0.000000 0.817052
vn 0.576564 0.000000 0.817052
vn -0.482849 0.868481 -0.112244
vn -0.482849 0.868481 -0.112244
vn -0.482849 0.868481 -0.112244
vn 0.000000 -0.938733 0.344644
vn 0.000000 -0.938733 0.344644
vn 0.000000 -0.938733 0.344644
vn 0.000000 -0.938733 0.344644
vn 0.977989 0.000000 0.208656
vn 0.977989 0.000000 0.208656
vn 0.977989 0.000000 0.208656
vn 0.977989 0.000000 0.208656
vn 0.000000 0.938733 0.344644
vn 0.000000 0.938733 0.344644
vn 0.000000 0.938733 0.344644
vn 0.000000 0.938733 0.344644
vn -0.977989 0.000000 0.208656
vn -0.977989 0.000000 0.208656
vn -0.977989 0.000000 0.208656
vn -0.977989 0.000000 0.208656
s off
g pCube1
usemtl lambert2SG
f 12/35/1 13/36/2 14/37/3 15/38/4
f 3/17/5 4/18/6 5/19/7
f 5/26/8 2/27/9 1/28/10
f 2/1/11 5/2/12 4/3/13
f 5/5/14 1/6/15 3/7/16
f 1/28/17 2/27/18 7/29/19 6/30/20
f 4/18/21 3/17/22 9/20/23 8/21/24
f 2/1/25 4/3/26 10/4/27
f 4/18/28 8/21/29 10/25/30
f 8/39/31 7/40/32 10/41/33
f 7/29/34 2/27/35 10/31/36
f 3/7/37 1/6/38 11/8/39
f 1/28/40 6/30/41 11/34/42
f 6/42/43 9/43/44 11/44/45
f 9/20/46 3/17/47 11/22/48
f 6/30/49 7/29/50 13/32/51 12/33/52
f 7/9/53 8/10/54 14/11/55 13/12/56
f 8/21/57 9/20/58 15/23/59 14/24/60
f 9/13/61 6/14/62 12/15/63 15/16/64
