# This file uses centimeters as units for non-parametric coordinates.

mtllib Propeller.mtl
g default
v 8.000000 14.471817 4.982358
v 2.190613 14.471817 8.000000
v 8.000000 -0.208055 4.982358
v 2.190613 -0.208055 8.000000
v -2.190613 14.471817 8.000000
v -8.000000 14.471817 4.982358
v -2.190613 -0.208055 8.000000
v -8.000000 -0.208055 4.982358
v 7.307178 14.471817 -8.000000
v 8.000000 14.471817 -7.307178
v 7.307178 -0.208055 -8.000000
v 8.000000 -0.208055 -7.307178
v -8.000000 14.471817 -7.307178
v -7.307178 14.471817 -8.000000
v -8.000000 -0.208055 -7.307178
v -7.307178 -0.208055 -8.000000
v 5.247179 -0.848055 -5.940000
v 5.940000 -0.848055 -5.247179
v 5.940000 -0.848055 2.922358
v 1.573046 -0.848055 5.940000
v -1.573046 -0.848055 5.940000
v -5.940000 -0.848055 2.922358
v -5.940000 -0.848055 -5.247179
v -5.247179 -0.848055 -5.940000
v 5.247179 -2.085553 -5.940000
v 5.940000 -2.085553 -5.247179
v 5.940000 -2.085553 2.922358
v 1.573046 -2.085553 5.940000
v -1.573046 -2.085553 5.940000
v -5.940000 -2.085553 2.922358
v -5.940000 -2.085553 -5.247179
v -5.247179 -2.085553 -5.940000
v 3.846102 -2.085553 -4.538923
v 4.538923 -2.085553 -3.846102
v 4.538923 -2.085553 1.521281
v 1.153019 -2.085553 4.538923
v -1.153019 -2.085553 4.538923
v -4.538923 -2.085553 1.521281
v -4.538923 -2.085553 -3.846102
v -3.846102 -2.085553 -4.538923
v 3.846102 -4.246759 -4.538923
v 4.538923 -4.246759 -3.846102
v 4.538923 -4.246759 1.521281
v 1.153019 -4.246759 4.538923
v -1.153019 -4.246759 4.538923
v -4.538923 -4.246759 1.521281
v -4.538923 -4.246759 -3.846102
v -3.846102 -4.246759 -4.538923
v 4.529140 -4.246760 -5.221962
v 5.221962 -4.246760 -4.529140
v 5.221962 -4.246760 2.204320
v 1.357788 -4.246760 5.221962
v -1.357788 -4.246760 5.221962
v -5.221962 -4.246760 2.204320
v -5.221962 -4.246760 -4.529140
v -4.529140 -4.246760 -5.221962
v 4.529140 -5.339794 -5.221962
v 5.221962 -5.339794 -4.529140
v 5.221962 -5.339794 2.204320
v 1.357788 -5.339794 5.221962
v -1.357788 -5.339794 5.221962
v -5.221962 -5.339794 2.204320
v -5.221962 -5.339794 -4.529140
v -4.529140 -5.339794 -5.221962
v 3.724093 -5.339793 -4.416915
v 4.416915 -5.339793 -3.724093
v 4.416915 -5.339793 1.399273
v 1.116441 -5.339793 4.416915
v -1.116441 -5.339793 4.416915
v -4.416915 -5.339793 1.399273
v -4.416915 -5.339793 -3.724093
v -3.724093 -5.339793 -4.416915
v 3.187368 -8.448016 -3.880190
v 3.880189 -8.448016 -3.187368
v 0.955538 -8.448016 3.880189
v 3.880189 -8.448016 0.862547
v -3.880189 -8.448016 0.862547
v -0.955538 -8.448016 3.880189
v -3.187368 -8.448016 -3.880190
v -3.880189 -8.448016 -3.187368
v 5.311003 16.000000 -5.814559
v 5.814559 16.000000 -5.311003
v -5.311003 16.000000 -5.814559
v -5.814559 16.000000 -5.311003
v -5.814559 16.000000 3.621277
v -1.592181 16.000000 5.814559
v 1.592181 16.000000 5.814559
v 5.814559 16.000000 3.621277
v 2.814497 -5.719379 -4.416915
v -2.814497 -5.719379 -4.416915
v 2.408864 -8.068430 -3.880190
v -2.408864 -8.068430 -3.880190
v 0.770626 -6.564253 -8.099340
v -0.770626 -6.564253 -8.099340
v 0.659561 -7.223556 -8.188883
v -0.659561 -7.223556 -8.188883
vt -0.000000 0.880413
vt 0.005413 0.875000
vt 0.119587 0.875000
vt 0.125000 0.880413
vt 0.125000 0.994587
vt 0.119587 1.000000
vt 0.005413 1.000000
vt -0.000000 0.994587
vt -0.000000 1.000000
vt -0.000000 0.901446
vt 0.005413 0.970432
vt -0.000000 0.973554
vt 0.125000 0.875000
vt 0.125000 0.973554
vt 0.119587 0.904568
vt 0.125000 1.000000
vt 0.119587 1.000000
vt 0.119587 0.901446
vt 0.125000 0.901446
vt 0.000000 1.000000
vt 0.000000 0.901446
vt 0.125000 0.901446
vt 0.125000 0.901446
vt 0.011160 0.967116
vt 0.113840 0.907884
vt 0.125000 0.901446
vt 0.005413 0.901446
vt 0.005413 1.000000
vt 0.005413 0.973554
vt 0.005413 0.875000
vt 0.119587 0.875000
vt 0.119587 0.973554
vt 0.005413 0.901446
vt 0.119587 0.901446
vt 0.119587 1.000000
vt 0.005413 1.000000
vt 0.005413 0.901446
vt 0.119587 0.901446
vt 0.119587 1.000000
vt 0.005413 1.000000
vt 0.119587 0.904568
vt 0.007290 0.969349
vt 0.005413 0.970432
vt 0.117710 0.905651
vt 0.125000 0.901446
vt 0.125000 0.901446
vt 0.125000 0.901446
vt 0.125000 0.901446
vt 0.117710 0.905651
vt 0.007290 0.969349
vt 0.007290 0.969349
vt 0.117710 0.905651
vt 0.125000 0.901446
vt 0.125000 0.901446
vt 0.125000 0.901446
vt 0.125000 0.901446
vt 0.117710 0.905651
vt 0.009540 0.968051
vt 0.007290 0.969349
vt 0.115460 0.906949
vt 0.125000 0.901446
vt 0.125000 0.901446
vt 0.125000 0.901446
vt 0.125000 0.901446
vt 0.115460 0.906949
vt 0.009540 0.968051
vt 0.009540 0.968051
vt 0.115460 0.906949
vt 0.125000 0.901446
vt 0.125000 0.901446
vt 0.125000 0.901446
vt 0.125000 0.901446
vt 0.115460 0.906949
vt 0.008292 0.968770
vt 0.009540 0.968051
vt 0.116708 0.906230
vt 0.125000 0.901446
vt 0.125000 0.901446
vt 0.125000 0.901446
vt 0.125000 0.901446
vt 0.116708 0.906230
vt 0.008292 0.968770
vt 0.008292 0.968770
vt 0.116708 0.906230
vt 0.125000 0.901446
vt 0.125000 0.901446
vt 0.125000 0.901446
vt 0.125000 0.901446
vt 0.116708 0.906230
vt 0.009804 0.967899
vt 0.008292 0.968770
vt 0.115196 0.907101
vt 0.125000 0.901446
vt 0.125000 0.901446
vt 0.125000 0.901446
vt 0.125000 0.901446
vt 0.115196 0.907101
vt 0.113840 0.907884
vt 0.009803 0.967899
vt 0.011160 0.967116
vt 0.125000 0.901446
vt 0.125000 0.901446
vt 0.125000 0.901446
vt 0.125000 0.901446
vt -0.000000 0.880413
vt 0.005413 0.875000
vt 0.119587 0.875000
vt 0.125000 0.880413
vt 0.125000 0.994587
vt 0.119587 1.000000
vt 0.005413 1.000000
vt -0.000000 0.994587
vt 0.125000 0.901446
vt 0.125000 0.901446
vt 0.125000 0.901446
vt 0.125000 0.901446
vt 0.125000 0.901446
vt 0.125000 0.901446
vt 0.125000 0.901446
vt 0.125000 0.901446
vn 0.000000 1.000000 0.000000
vn 0.000000 1.000000 0.000000
vn 0.000000 1.000000 0.000000
vn 0.000000 1.000000 0.000000
vn 0.000000 1.000000 0.000000
vn 0.000000 1.000000 0.000000
vn 0.000000 1.000000 0.000000
vn 0.000000 1.000000 0.000000
vn 0.000000 -1.000000 0.000000
vn 0.000000 -1.000000 0.000000
vn 0.000000 -1.000000 0.000000
vn 0.000000 -1.000000 0.000000
vn 0.000000 -1.000000 0.000000
vn 0.000000 -1.000000 0.000000
vn 0.000000 -1.000000 0.000000
vn 0.000000 -1.000000 0.000000
vn 0.460963 0.000000 0.887419
vn 0.460963 0.000000 0.887419
vn 0.460963 0.000000 0.887419
vn 0.460963 0.000000 0.887419
vn 0.211860 -0.970718 0.113234
vn 0.085872 -0.965896 0.244277
vn 0.084066 -0.965767 0.245410
vn 0.242052 -0.967449 0.073849
vn -0.460963 0.000000 0.887419
vn -0.460963 0.000000 0.887419
vn -0.460963 0.000000 0.887419
vn -0.460963 0.000000 0.887419
vn -0.085872 -0.965896 0.244277
vn -0.211860 -0.970718 0.113234
vn -0.242052 -0.967449 0.073849
vn -0.084066 -0.965767 0.245410
vn 0.707107 0.000000 -0.707107
vn 0.707107 0.000000 -0.707107
vn 0.707107 0.000000 -0.707107
vn 0.707107 0.000000 -0.707107
vn 0.026383 -0.961813 -0.272432
vn 0.267993 -0.962917 -0.031166
vn 0.285300 -0.958357 -0.012442
vn 0.010291 -0.957793 -0.287276
vn -0.707107 0.000000 -0.707107
vn -0.707107 0.000000 -0.707107
vn -0.707107 0.000000 -0.707107
vn -0.707107 0.000000 -0.707107
vn -0.267993 -0.962917 -0.031166
vn -0.026383 -0.961813 -0.272432
vn -0.010291 -0.957793 -0.287276
vn -0.285300 -0.958357 -0.012442
vn 0.707107 0.000000 -0.707107
vn 0.707107 0.000000 -0.707107
vn 0.707107 0.000000 -0.707107
vn 0.707107 0.000000 -0.707107
vn 0.568492 0.000000 0.822689
vn 0.568492 0.000000 0.822689
vn 0.568492 0.000000 0.822689
vn 0.568492 0.000000 0.822689
vn -0.568492 0.000000 0.822689
vn -0.568492 0.000000 0.822689
vn -0.568492 0.000000 0.822689
vn -0.568492 0.000000 0.822689
vn -0.707107 0.000000 -0.707107
vn -0.707107 0.000000 -0.707107
vn -0.707107 0.000000 -0.707107
vn -0.707107 0.000000 -0.707107
vn 0.000000 -1.000000 0.000000
vn 0.000000 -1.000000 0.000000
vn 0.000000 -1.000000 0.000000
vn 0.000000 -1.000000 0.000000
vn 0.000000 -1.000000 -0.000000
vn 0.000000 -1.000000 -0.000000
vn 0.000000 -1.000000 -0.000000
vn 0.000000 -1.000000 -0.000000
vn 0.000000 -1.000000 0.000000
vn 0.000000 -1.000000 -0.000000
vn 0.000000 -1.000000 -0.000000
vn 0.000000 -1.000000 -0.000000
vn 0.000000 -1.000000 0.000000
vn 0.000000 -1.000000 0.000000
vn 0.000000 -1.000000 0.000000
vn 0.000000 -1.000000 0.000000
vn 0.707107 0.000000 -0.707107
vn 0.707107 0.000000 -0.707107
vn 0.707107 0.000000 -0.707107
vn 0.707107 0.000000 -0.707107
vn 0.665342 0.000000 0.746538
vn 0.665342 0.000000 0.746538
vn 0.665342 0.000000 0.746538
vn 0.665342 0.000000 0.746538
vn -0.665342 0.000000 0.746538
vn -0.665342 0.000000 0.746538
vn -0.665342 0.000000 0.746538
vn -0.665342 0.000000 0.746538
vn -0.707107 0.000000 -0.707107
vn -0.707107 0.000000 -0.707107
vn -0.707107 0.000000 -0.707107
vn -0.707107 0.000000 -0.707107
vn 0.000000 1.000000 -0.000002
vn 0.000001 1.000000 -0.000000
vn 0.000001 1.000000 -0.000000
vn 0.000000 1.000000 -0.000001
vn 0.000001 1.000000 0.000000
vn 0.000001 1.000000 0.000001
vn 0.000001 1.000000 0.000001
vn 0.000001 1.000000 0.000001
vn -0.000001 1.000000 0.000001
vn -0.000001 1.000000 0.000000
vn -0.000001 1.000000 0.000001
vn -0.000001 1.000000 0.000001
vn -0.000001 1.000000 -0.000000
vn -0.000000 1.000000 -0.000002
vn -0.000000 1.000000 -0.000001
vn -0.000001 1.000000 -0.000000
vn 0.707107 0.000000 -0.707107
vn 0.707107 0.000000 -0.707107
vn 0.707107 0.000000 -0.707107
vn 0.707107 0.000000 -0.707107
vn 0.615486 0.000000 0.788148
vn 0.615486 0.000000 0.788148
vn 0.615486 0.000000 0.788148
vn 0.615486 0.000000 0.788148
vn -0.615486 0.000000 0.788148
vn -0.615486 0.000000 0.788148
vn -0.615486 0.000000 0.788148
vn -0.615486 0.000000 0.788148
vn -0.707107 0.000000 -0.707107
vn -0.707107 0.000000 -0.707107
vn -0.707107 0.000000 -0.707107
vn -0.707107 0.000000 -0.707107
vn -0.000000 -1.000000 0.000001
vn -0.000001 -1.000000 0.000000
vn -0.000001 -1.000000 0.000000
vn -0.000000 -1.000000 0.000001
vn -0.000001 -1.000000 -0.000000
vn -0.000000 -1.000000 -0.000001
vn -0.000000 -1.000000 -0.000001
vn -0.000001 -1.000000 -0.000000
vn 0.000000 -1.000000 -0.000001
vn 0.000001 -1.000000 -0.000000
vn 0.000001 -1.000000 -0.000000
vn 0.000000 -1.000000 -0.000001
vn 0.000001 -1.000000 0.000000
vn 0.000000 -1.000000 0.000001
vn 0.000000 -1.000000 0.000001
vn 0.000001 -1.000000 0.000000
vn 0.686921 -0.237234 -0.686921
vn 0.686921 -0.237234 -0.686921
vn 0.686921 -0.237234 -0.686921
vn 0.686921 -0.237234 -0.686921
vn 0.682281 -0.198090 0.703742
vn 0.682281 -0.198090 0.703742
vn 0.682281 -0.198090 0.703742
vn 0.682281 -0.198090 0.703742
vn -0.682281 -0.198090 0.703742
vn -0.682281 -0.198090 0.703742
vn -0.682281 -0.198090 0.703742
vn -0.682281 -0.198090 0.703742
vn -0.686921 -0.237234 -0.686921
vn -0.686921 -0.237234 -0.686921
vn -0.686921 -0.237234 -0.686921
vn -0.686921 -0.237234 -0.686921
vn 1.000000 0.000000 0.000000
vn 1.000000 0.000000 0.000000
vn 1.000000 0.000000 0.000000
vn 1.000000 0.000000 0.000000
vn 0.000000 0.000000 1.000000
vn 0.000000 0.000000 1.000000
vn 0.000000 0.000000 1.000000
vn 0.000000 0.000000 1.000000
vn -1.000000 0.000000 0.000000
vn -1.000000 0.000000 0.000000
vn -1.000000 0.000000 0.000000
vn -1.000000 0.000000 0.000000
vn 0.000000 0.000000 -1.000000
vn 0.000000 0.000000 -1.000000
vn 0.000000 0.000000 -1.000000
vn 0.000000 0.000000 -1.000000
vn 1.000000 0.000000 0.000000
vn 1.000000 0.000000 0.000000
vn 1.000000 0.000000 0.000000
vn 1.000000 0.000000 0.000000
vn 0.000000 0.000000 1.000000
vn 0.000000 0.000000 1.000000
vn 0.000000 0.000000 1.000000
vn 0.000000 0.000000 1.000000
vn -1.000000 0.000000 0.000000
vn -1.000000 0.000000 0.000000
vn -1.000000 0.000000 0.000000
vn -1.000000 0.000000 0.000000
vn 0.000000 0.000000 -1.000000
vn 0.000000 0.000000 -1.000000
vn 0.000000 0.000000 -1.000000
vn 0.000000 0.000000 -1.000000
vn 1.000000 0.000000 0.000000
vn 1.000000 0.000000 0.000000
vn 1.000000 0.000000 0.000000
vn 1.000000 0.000000 0.000000
vn 0.000000 0.000000 1.000000
vn 0.000000 0.000000 1.000000
vn 0.000000 0.000000 1.000000
vn 0.000000 0.000000 1.000000
vn -1.000000 0.000000 0.000000
vn -1.000000 0.000000 0.000000
vn -1.000000 0.000000 0.000000
vn -1.000000 0.000000 0.000000
vn 0.000000 0.000000 -1.000000
vn 0.000000 0.000000 -1.000000
vn 0.000000 0.000000 -1.000000
vn 0.000000 0.000000 -1.000000
vn 1.000000 0.000000 0.000000
vn 1.000000 0.000000 0.000000
vn 1.000000 0.000000 0.000000
vn 1.000000 0.000000 0.000000
vn 0.000000 0.000000 1.000000
vn 0.000000 0.000000 1.000000
vn 0.000000 0.000000 1.000000
vn 0.000000 0.000000 1.000000
vn -1.000000 0.000000 0.000000
vn -1.000000 0.000000 0.000000
vn -1.000000 0.000000 0.000000
vn -1.000000 0.000000 0.000000
vn 0.000000 0.000000 -1.000000
vn 0.000000 0.000000 -1.000000
vn 0.000000 0.000000 -1.000000
vn 0.000000 0.000000 -1.000000
vn 0.985416 -0.170161 0.000000
vn 0.985416 -0.170161 0.000000
vn 0.985416 -0.170161 0.000000
vn 0.985416 -0.170161 0.000000
vn 0.000000 -0.170161 0.985416
vn 0.000000 -0.170161 0.985416
vn 0.000000 -0.170161 0.985416
vn 0.000000 -0.170161 0.985416
vn -0.985416 -0.170161 0.000000
vn -0.985416 -0.170161 0.000000
vn -0.985416 -0.170161 0.000000
vn -0.985416 -0.170161 0.000000
vn 0.000000 0.134578 -0.990903
vn 0.000000 0.134578 -0.990903
vn 0.000000 0.134578 -0.990903
vn 0.000000 0.134578 -0.990903
vn 0.324656 0.888368 -0.324656
vn 0.324656 0.888368 -0.324656
vn 0.324656 0.888367 -0.324656
vn 0.324656 0.888367 -0.324656
vn 0.000000 0.819518 -0.573053
vn 0.000000 0.819518 -0.573053
vn 0.000000 0.819518 -0.573053
vn 0.000000 0.819518 -0.573053
vn -0.324656 0.888367 -0.324656
vn -0.324656 0.888367 -0.324656
vn -0.324656 0.888367 -0.324656
vn -0.324656 0.888367 -0.324656
vn -0.573053 0.819518 0.000000
vn -0.573053 0.819518 0.000000
vn -0.573053 0.819518 0.000000
vn -0.573053 0.819518 0.000000
vn -0.261753 0.823140 0.503911
vn -0.261753 0.823140 0.503911
vn -0.261753 0.823140 0.503911
vn -0.261753 0.823140 0.503911
vn 0.000000 0.819518 0.573053
vn 0.000000 0.819518 0.573053
vn 0.000000 0.819518 0.573053
vn 0.000000 0.819518 0.573053
vn 0.261753 0.823140 0.503911
vn 0.261753 0.823140 0.503911
vn 0.261753 0.823140 0.503911
vn 0.261753 0.823140 0.503911
vn 0.573053 0.819518 0.000000
vn 0.573053 0.819518 0.000000
vn 0.573053 0.819518 0.000000
vn 0.573053 0.819518 0.000000
vn 0.000000 0.000000 -1.000000
vn 0.000000 0.000000 -1.000000
vn 0.000000 0.000000 -1.000000
vn 0.000000 0.000000 -1.000000
vn 0.000000 -0.193003 -0.981198
vn 0.000000 -0.193003 -0.981198
vn 0.000000 -0.193003 -0.981198
vn 0.000000 -0.193003 -0.981198
vn 0.000000 0.000000 -1.000000
vn 0.000000 0.000000 -1.000000
vn 0.000000 0.000000 -1.000000
vn 0.000000 0.000000 -1.000000
vn -0.000000 -0.193003 -0.981198
vn -0.000000 -0.193003 -0.981198
vn -0.000000 -0.193003 -0.981198
vn -0.000000 -0.193003 -0.981198
vn 0.000000 0.974676 -0.223624
vn 0.000000 0.974676 -0.223624
vn 0.000000 0.974676 -0.223624
vn 0.000000 0.974676 -0.223624
vn 0.882495 -0.213840 -0.418897
vn 0.882495 -0.213840 -0.418897
vn 0.882495 -0.213840 -0.418897
vn 0.882495 -0.213840 -0.418897
vn 0.000000 -0.981312 -0.192422
vn 0.000000 -0.981312 -0.192422
vn 0.000000 -0.981312 -0.192422
vn 0.000000 -0.981312 -0.192422
vn -0.882495 -0.213840 -0.418897
vn -0.882495 -0.213840 -0.418897
vn -0.882495 -0.213840 -0.418897
vn -0.882495 -0.213840 -0.418897
s off
g PropellerBase
usemtl lambert2SG
f 82/105/1 81/106/2 83/107/3 84/108/4 85/109/5 86/110/6 87/111/7 88/112/8
f 73/23/9 74/98/10 76/24/11 75/100/12 78/25/13 77/102/14 80/26/15 79/104/16
f 1/28/17 2/9/18 4/10/19 3/27/20
s 1
f 3/11/21 4/12/22 20/51/23 19/42/24
s off
f 5/31/25 6/13/26 8/14/27 7/32/28
s 1
f 7/15/29 8/45/30 22/53/31 21/44/32
s off
f 9/16/33 10/17/34 12/18/35 11/19/36
s 1
f 11/19/37 12/41/38 18/49/39 17/48/40
s off
f 13/36/41 14/20/42 16/21/43 15/33/44
s 1
f 15/22/45 16/47/46 24/55/47 23/46/48
s off
f 17/48/49 18/49/50 26/57/51 25/56/52
f 19/42/53 20/51/54 28/59/55 27/50/56
f 21/44/57 22/53/58 30/61/59 29/52/60
f 23/46/61 24/55/62 32/63/63 31/54/64
s 3
f 25/56/65 26/57/66 34/65/67 33/64/68
f 27/50/69 28/59/70 36/67/71 35/58/72
f 29/52/73 30/61/74 38/69/75 37/60/76
f 31/54/77 32/63/78 40/71/79 39/62/80
s off
f 33/64/81 34/65/82 42/73/83 41/72/84
f 35/58/85 36/67/86 44/75/87 43/66/88
f 37/60/89 38/69/90 46/77/91 45/68/92
f 39/62/93 40/71/94 48/79/95 47/70/96
s 6
f 41/72/97 42/73/98 50/81/99 49/80/100
f 43/66/101 44/75/102 52/83/103 51/74/104
f 45/68/105 46/77/106 54/85/107 53/76/108
f 47/70/109 48/79/110 56/87/111 55/78/112
s off
f 49/80/113 50/81/114 58/89/115 57/88/116
f 51/74/117 52/83/118 60/91/119 59/82/120
f 53/76/121 54/85/122 62/93/123 61/84/124
f 55/78/125 56/87/126 64/95/127 63/86/128
s 9
f 57/88/129 58/89/130 66/97/131 65/96/132
f 59/82/133 60/91/134 68/99/135 67/90/136
f 61/84/137 62/93/138 70/101/139 69/92/140
f 63/86/141 64/95/142 72/103/143 71/94/144
s off
f 65/96/145 66/97/146 74/98/147 73/23/148
f 67/90/149 68/99/150 75/100/151 76/24/152
f 69/92/153 70/101/154 77/102/155 78/25/156
f 71/94/157 72/103/158 79/104/159 80/26/160
f 3/27/161 12/18/162 10/17/163 1/28/164
f 4/29/165 2/30/166 5/31/167 7/32/168
f 15/33/169 8/34/170 6/35/171 13/36/172
f 11/37/173 16/38/174 14/39/175 9/40/176
s 1
f 12/41/38 3/11/21 19/42/24 18/49/39
f 4/43/22 7/15/29 21/44/32 20/51/23
f 8/45/30 15/22/45 23/46/48 22/53/31
f 16/47/46 11/19/37 17/48/40 24/55/47
s off
f 18/49/177 19/42/178 27/50/179 26/57/180
f 20/51/181 21/44/182 29/52/183 28/59/184
f 22/53/185 23/46/186 31/54/187 30/61/188
f 24/55/189 17/48/190 25/56/191 32/63/192
s 3
f 26/57/66 27/50/69 35/58/72 34/65/67
f 28/59/70 29/52/73 37/60/76 36/67/71
f 30/61/74 31/54/77 39/62/80 38/69/75
f 32/63/78 25/56/65 33/64/68 40/71/79
s off
f 34/65/193 35/58/194 43/66/195 42/73/196
f 36/67/197 37/60/198 45/68/199 44/75/200
f 38/69/201 39/62/202 47/70/203 46/77/204
f 40/71/205 33/64/206 41/72/207 48/79/208
s 6
f 42/73/98 43/66/101 51/74/104 50/81/99
f 44/75/102 45/68/105 53/76/108 52/83/103
f 46/77/106 47/70/109 55/78/112 54/85/107
f 48/79/110 41/72/97 49/80/100 56/87/111
s off
f 50/81/209 51/74/210 59/82/211 58/89/212
f 52/83/213 53/76/214 61/84/215 60/91/216
f 54/85/217 55/78/218 63/86/219 62/93/220
f 56/87/221 49/80/222 57/88/223 64/95/224
s 9
f 58/89/130 59/82/133 67/90/136 66/97/131
f 60/91/134 61/84/137 69/92/140 68/99/135
f 62/93/138 63/86/141 71/94/144 70/101/139
f 64/95/142 57/88/129 65/96/132 72/103/143
s off
f 66/97/225 67/90/226 76/24/227 74/98/228
f 68/99/229 69/92/230 78/25/231 75/100/232
f 70/101/233 71/94/234 80/26/235 77/102/236
f 94/117/237 93/118/238 95/119/239 96/120/240
f 10/1/241 9/2/242 81/106/243 82/105/244
f 9/2/245 14/3/246 83/107/247 81/106/248
f 14/3/249 13/4/250 84/108/251 83/107/252
f 13/4/253 6/5/254 85/109/255 84/108/256
f 6/5/257 5/6/258 86/110/259 85/109/260
f 5/6/261 2/7/262 87/111/263 86/110/264
f 2/7/265 1/8/266 88/112/267 87/111/268
f 1/8/269 10/1/270 82/105/271 88/112/272
f 72/103/273 65/96/274 89/114/275 90/113/276
f 65/96/277 73/23/278 91/115/279 89/114/280
f 73/23/281 79/104/282 92/116/283 91/115/284
f 79/104/285 72/103/286 90/113/287 92/116/288
f 90/113/289 89/114/290 93/118/291 94/117/292
f 89/114/293 91/115/294 95/119/295 93/118/296
f 91/115/297 92/116/298 96/120/299 95/119/300
f 92/116/301 90/113/302 94/117/303 96/120/304
