# This file uses centimeters as units for non-parametric coordinates.

mtllib Seat.mtl
g default
v 7.728981 -4.250000 7.728981
v 8.000000 -3.978981 7.728981
v 7.728981 -3.978981 8.000000
v 7.728981 -3.978981 -8.000000
v 8.000000 -3.978981 -7.728981
v 7.728981 -4.250000 -7.728981
v 7.728981 -0.271019 8.000000
v 8.000000 -0.271019 7.728981
v 7.728981 0.000000 7.728981
v 7.728981 0.000000 -7.728981
v 8.000000 -0.271019 -7.728981
v 7.728981 -0.271019 -8.000000
v -7.728981 -0.271019 8.000000
v -7.728981 0.000000 7.728981
v -8.000000 -0.271019 7.728981
v -8.000000 -0.271019 -7.728981
v -7.728981 0.000000 -7.728981
v -7.728981 -0.271019 -8.000000
v -7.728981 -3.978981 8.000000
v -8.000000 -3.978981 7.728981
v -7.728981 -4.250000 7.728981
v -7.728981 -4.250000 -7.728981
v -8.000000 -3.978981 -7.728981
v -7.728981 -3.978981 -8.000000
v 5.817485 0.000000 -5.817485
v 5.817485 0.000000 5.817485
v -5.817485 0.000000 -5.817485
v -5.817485 0.000000 5.817485
v 5.817485 8.000000 -5.817485
v 5.817485 8.000000 5.817485
v -5.817485 8.000000 -5.817485
v -5.817485 8.000000 5.817485
v 5.177485 8.000000 -5.177485
v 5.177485 8.000000 5.177485
v -5.817485 8.000000 -5.177485
v -5.817485 8.000000 5.177485
v -5.817485 0.640000 5.177485
v -5.817485 0.640000 -5.177485
v 3.787486 7.270000 -3.787486
v 3.787486 7.270000 3.787486
v -3.320126 5.648249 -2.559325
v -3.320126 5.648249 2.559325
v -5.087485 2.030000 3.787485
v -5.087485 2.030000 -3.787486
vt 0.002117 0.872883
vt -0.000000 0.872883
vt -0.000000 0.752117
vt 0.001526 0.853941
vt 0.002805 0.853941
vt 0.020302 0.855675
vt 0.125000 0.872883
vt 0.122883 0.872883
vt 0.122883 0.752117
vt 0.125000 0.752117
vt 0.002805 0.753306
vt -0.000000 0.752117
vt -0.000000 0.872883
vt 0.020302 0.853941
vt 0.020302 0.755040
vt 0.021581 0.755040
vt 0.125000 0.752117
vt 0.002805 0.855675
vt 0.020302 0.855675
vt 0.002117 0.872883
vt 0.122883 0.872883
vt 0.122883 0.875000
vt 0.002805 0.753306
vt 0.020302 0.753306
vt 0.020302 0.853941
vt 0.020302 0.755040
vt 0.021581 0.755040
vt 0.002805 0.755040
vt 0.002117 0.752117
vt 0.122883 0.752117
vt 0.002805 0.853941
vt 0.002805 0.755040
vt 0.002117 0.752117
vt 0.002805 0.853941
vt 0.002805 0.755040
vt 0.020302 0.755040
vt 0.020302 0.853941
vt 0.002805 0.853941
vt 0.002805 0.755040
vt 0.020302 0.755040
vt 0.020302 0.853941
vt 0.002805 0.855675
vt 0.001526 0.755040
vt 0.021581 0.853941
vt 0.020302 0.753306
vt 0.002117 0.875000
vt 0.125000 0.872883
vt 0.021581 0.853941
vt 0.503272 0.754694
vt 0.621240 0.754694
vt 0.606652 0.769282
vt 0.517859 0.769282
vt 0.519679 0.766804
vt 0.600139 0.766804
vt 0.519679 0.774293
vt 0.600139 0.774293
vt 0.507257 0.760720
vt 0.614394 0.760720
vt 0.613124 0.847082
vt 0.516204 0.848403
vt 0.521243 0.842946
vt 0.607935 0.841752
vt 0.608500 0.766614
vt 0.513150 0.766614
vt 0.510993 0.781878
vt 0.516276 0.781483
vt 0.616413 0.780456
vt 0.611119 0.780214
vt 0.502435 0.380305
vt 0.624743 0.380305
vt 0.604913 0.478257
vt 0.522265 0.478257
vt 0.624743 0.379159
vt 0.502435 0.379159
vt 0.614394 0.867857
vt 0.608500 0.867857
vt 0.507257 0.867857
vt 0.513150 0.867857
vt 0.595701 0.779413
vt 0.525950 0.779413
vt 0.584392 0.844861
vt 0.537259 0.844861
vt 0.533088 0.829849
vt 0.595728 0.829068
vt 0.548012 0.798305
vt 0.579890 0.797961
vt 0.600139 0.854753
vt 0.519679 0.854753
vt 0.600139 0.774293
vt 0.519679 0.774293
vt 0.519679 0.854753
vt 0.600139 0.854753
vt 0.600139 0.847264
vt 0.519679 0.847264
vt 0.621240 0.872662
vt 0.606652 0.858074
vt 0.503272 0.872662
vt 0.517859 0.858074
vn 0.000000 -0.707108 0.707106
vn 0.000000 -0.707108 0.707106
vn 0.000000 -0.707108 0.707106
vn 0.000000 -0.707108 0.707106
vn 0.707107 -0.707107 0.000000
vn 0.707107 -0.707107 0.000000
vn 0.707107 -0.707107 0.000000
vn 0.707107 -0.707107 0.000000
vn 0.707107 0.000000 0.707107
vn 0.707107 0.000000 0.707107
vn 0.707107 0.000000 0.707107
vn 0.707107 0.000000 0.707107
vn 0.000000 -0.707108 -0.707106
vn 0.000000 -0.707108 -0.707106
vn 0.000000 -0.707108 -0.707106
vn 0.000000 -0.707108 -0.707106
vn 0.707107 0.000000 -0.707107
vn 0.707107 0.000000 -0.707107
vn 0.707107 0.000000 -0.707107
vn 0.707107 0.000000 -0.707107
vn 0.000000 0.707107 0.707107
vn 0.000000 0.707107 0.707107
vn 0.000000 0.707107 0.707107
vn 0.000000 0.707107 0.707107
vn 0.707107 0.707107 0.000000
vn 0.707107 0.707107 0.000000
vn 0.707107 0.707107 0.000000
vn 0.707107 0.707107 0.000000
vn 0.000000 0.707107 -0.707107
vn 0.000000 0.707107 -0.707107
vn 0.000000 0.707107 -0.707107
vn 0.000000 0.707107 -0.707107
vn -0.707107 0.000000 0.707107
vn -0.707107 0.000000 0.707107
vn -0.707107 0.000000 0.707107
vn -0.707107 0.000000 0.707107
vn -0.707107 0.707107 0.000000
vn -0.707107 0.707107 0.000000
vn -0.707107 0.707107 0.000000
vn -0.707107 0.707107 0.000000
vn -0.707107 0.000000 -0.707107
vn -0.707107 0.000000 -0.707107
vn -0.707107 0.000000 -0.707107
vn -0.707107 0.000000 -0.707107
vn -0.707107 -0.707107 0.000000
vn -0.707107 -0.707107 0.000000
vn -0.707107 -0.707107 0.000000
vn -0.707107 -0.707107 0.000000
vn 1.000000 0.000000 0.000000
vn 1.000000 0.000000 0.000000
vn 1.000000 0.000000 0.000000
vn 1.000000 0.000000 0.000000
vn -0.212318 0.945011 -0.248747
vn -0.212318 0.945011 0.248747
vn -0.161763 0.959107 0.232266
vn -0.161763 0.959107 -0.232266
vn -1.000000 0.000000 0.000000
vn -1.000000 0.000000 0.000000
vn -1.000000 0.000000 0.000000
vn -1.000000 0.000000 0.000000
vn 0.000000 -1.000000 0.000000
vn 0.000000 -1.000000 0.000000
vn 0.000000 -1.000000 0.000000
vn 0.000000 -1.000000 0.000000
vn 0.000000 0.000000 -1.000000
vn 0.000000 0.000000 -1.000000
vn 0.000000 0.000000 -1.000000
vn 0.000000 0.000000 -1.000000
vn 0.000000 0.000000 1.000000
vn 0.000000 0.000000 1.000000
vn 0.000000 0.000000 1.000000
vn 0.000000 0.000000 1.000000
vn 0.577352 -0.577348 0.577350
vn 0.577352 -0.577348 0.577350
vn 0.577352 -0.577348 0.577350
vn 0.577352 -0.577348 -0.577350
vn 0.577352 -0.577348 -0.577350
vn 0.577352 -0.577348 -0.577350
vn 0.577352 0.577349 0.577350
vn 0.577352 0.577349 0.577350
vn 0.577352 0.577348 0.577350
vn 0.577352 0.577348 -0.577350
vn 0.577352 0.577349 -0.577350
vn 0.577352 0.577349 -0.577350
vn -0.577352 0.577349 0.577350
vn -0.577352 0.577348 0.577350
vn -0.577352 0.577349 0.577350
vn -0.577352 0.577349 -0.577350
vn -0.577352 0.577348 -0.577350
vn -0.577352 0.577349 -0.577350
vn -0.577352 -0.577348 0.577350
vn -0.577352 -0.577348 0.577350
vn -0.577352 -0.577348 0.577350
vn -0.577352 -0.577348 -0.577350
vn -0.577352 -0.577348 -0.577350
vn -0.577352 -0.577348 -0.577350
vn 0.000000 1.000000 0.000000
vn 0.000000 1.000000 0.000000
vn 0.000000 1.000000 0.000000
vn 0.000000 1.000000 0.000000
vn 0.000000 1.000000 0.000000
vn 0.000000 1.000000 0.000000
vn 0.000000 1.000000 0.000000
vn 0.000000 1.000000 0.000000
vn 0.000000 1.000000 0.000000
vn 0.000000 1.000000 0.000000
vn 0.000000 1.000000 0.000000
vn 0.000000 1.000000 0.000000
vn 0.000000 1.000000 0.000000
vn 0.000000 1.000000 0.000000
vn 0.000000 1.000000 0.000000
vn 0.000000 1.000000 0.000000
vn 1.000000 0.000000 0.000000
vn 1.000000 0.000000 0.000000
vn 1.000000 0.000000 0.000000
vn 1.000000 0.000000 0.000000
vn 0.000000 0.000000 -1.000000
vn 0.000000 0.000000 -1.000000
vn 0.000000 0.000000 -1.000000
vn 0.000000 0.000000 -1.000000
vn -0.910205 0.323268 0.258891
vn -0.910205 0.323268 -0.258892
vn -0.915857 0.332484 -0.225079
vn -0.915857 0.332484 0.225079
vn 0.000000 0.000000 1.000000
vn 0.000000 0.000000 1.000000
vn 0.000000 0.000000 1.000000
vn 0.000000 0.000000 1.000000
vn 0.000000 1.000000 0.000000
vn 0.000000 1.000000 -0.000000
vn -0.099615 0.975019 0.198531
vn -0.099615 0.975019 -0.198531
vn 0.000000 1.000000 -0.000001
vn -0.020174 0.903642 0.427813
vn 0.000000 1.000000 0.000000
vn -0.020174 0.903642 -0.427813
vn -1.000000 0.000000 0.000000
vn -1.000000 0.000000 -0.000000
vn -0.979182 0.125738 -0.159354
vn -0.979182 0.125738 0.159354
vn -1.000000 0.000000 0.000000
vn -0.898437 0.036769 -0.437560
vn -1.000000 0.000000 0.000001
vn -0.898437 0.036769 0.437561
s off
g Seat
usemtl lambert2SG
f 1/1/1 3/2/2 19/3/3 21/33/4
f 2/5/5 1/4/6 6/43/7 5/28/8
f 3/42/9 2/5/10 8/14/11 7/6/12
f 4/7/13 6/8/14 22/9/15 24/10/16
f 5/28/17 4/11/18 12/45/19 11/15/20
f 7/12/21 9/29/22 14/20/23 13/13/24
f 9/44/25 8/14/26 11/15/27 10/16/28
f 10/30/29 12/17/30 18/47/31 17/21/32
f 13/18/33 15/31/34 20/25/35 19/19/36
f 15/46/37 14/20/38 17/21/39 16/22/40
f 16/32/41 18/23/42 24/24/43 23/26/44
f 21/48/45 20/25/46 23/26/47 22/27/48
f 2/5/49 5/28/50 11/15/51 8/14/52
s 1
f 40/69/53 39/70/54 41/71/55 42/72/56
s off
f 15/31/57 16/32/58 23/26/59 20/25/60
f 21/33/61 22/9/62 6/8/63 1/1/64
f 4/34/65 24/35/66 18/36/67 12/37/68
f 19/38/69 3/39/70 7/40/71 13/41/72
f 1/4/73 2/5/74 3/42/75
f 4/11/76 5/28/77 6/43/78
f 7/6/79 8/14/80 9/44/81
f 10/16/82 11/15/83 12/45/84
f 13/13/85 14/20/86 15/46/87
f 16/22/88 17/21/89 18/47/90
f 19/19/91 20/25/92 21/48/93
f 22/27/94 23/26/95 24/24/96
f 9/49/97 10/50/98 25/51/99 26/52/100
f 10/50/101 17/95/102 27/96/103 25/51/104
f 17/95/105 14/97/106 28/98/107 27/96/108
f 14/97/109 9/49/110 26/52/111 28/98/112
f 26/53/113 25/54/114 29/93/115 30/94/116
f 25/55/117 27/56/118 31/87/119 29/88/120
s 2
f 44/73/121 43/74/122 42/72/123 41/71/124
s off
f 28/89/125 26/90/126 30/91/127 32/92/128
s 1
f 30/57/129 29/58/130 33/63/131 34/64/132
f 29/58/130 31/75/133 35/76/134 33/63/131
f 32/77/135 30/57/129 34/64/132 36/78/136
s 2
f 27/59/137 28/60/138 37/61/139 38/62/140
f 28/60/138 32/65/141 36/66/142 37/61/139
f 31/67/143 27/59/137 38/62/140 35/68/144
s 1
f 34/64/132 33/63/131 39/79/54 40/80/53
f 33/63/131 35/76/134 41/81/55 39/79/54
f 36/78/136 34/64/132 40/80/53 42/82/56
s 2
f 38/62/140 37/61/139 43/83/122 44/84/121
f 37/61/139 36/66/142 42/85/123 43/83/122
f 35/68/144 38/62/140 44/84/121 41/86/124
